<?xml version="1.0" encoding="UTF-8"?>
<svg width="256" height="256" viewBox="0 0 24 24" fill="none" xmlns="http://www.w3.org/2000/svg">
  <path d="M4 4H6L7 14M7 14H19L21 7H5.5M7 14L5.5 7M15 18C15 19.1046 14.1046 20 13 20C11.8954 20 11 19.1046 11 18M15 18C15 16.8954 14.1046 16 13 16C11.8954 16 11 16.8954 11 18M15 18H11M9 18C9 19.1046 8.10457 20 7 20C5.89543 20 5 19.1046 5 18M9 18C9 16.8954 8.10457 16 7 16C5.89543 16 5 16.8954 5 18M9 18H5" stroke="#3B82F6" stroke-width="2" stroke-linecap="round" stroke-linejoin="round"/>
</svg>